<?xml version="1.0" encoding="utf-8"?>
<!-- Svg Vector Icons : http://www.onlinewebfonts.com/icon -->
<!DOCTYPE svg PUBLIC "-//W3C//DTD SVG 1.1//EN" "http://www.w3.org/Graphics/SVG/1.1/DTD/svg11.dtd">
<svg version="1.1" xmlns="http://www.w3.org/2000/svg" xmlns:xlink="http://www.w3.org/1999/xlink" x="0px" y="0px" viewBox="0 0 1000 1000" enable-background="new 0 0 1000 1000" xml:space="preserve">
<metadata> Svg Vector Icons : http://www.onlinewebfonts.com/icon </metadata>
<g><path d="M500,13.7C229.4,13.7,10,231.4,10,500c0,268.6,219.4,486.3,490,486.3c270.6,0,490-217.7,490-486.3C990,231.4,770.6,13.7,500,13.7L500,13.7z M500,963.9C241.9,963.9,32.6,756.2,32.6,500C32.6,243.8,241.9,36.1,500,36.1c258.1,0,467.4,207.7,467.4,463.9C967.4,756.2,758.1,963.9,500,963.9L500,963.9z"/><path d="M386.9,721.7c0,6.9,4.4,9,9.8,4.8l277.7-215.9c5.4-4.2,5.4-11,0-15.3L396.7,277.7c-5.4-4.2-9.8-2.1-9.8,4.7V721.7z"/></g>
</svg>